<svg width="27" height="18" viewBox="0 0 27 18" fill="none" xmlns="http://www.w3.org/2000/svg">
<path d="M22.9596 17.2388C22.7505 17.2388 22.5433 17.1704 22.3703 17.0354L15.7569 11.8078C15.5288 11.6253 15.3958 11.3516 15.3958 11.0607V1.55594C15.3958 1.03318 15.8216 0.605469 16.3462 0.605469H25.851C26.3757 0.605469 26.8015 1.03318 26.8015 1.55594V11.0607C26.8015 11.5835 26.3757 12.0112 25.851 12.0112H22.4464L23.8569 15.969C23.9995 16.3682 23.8588 16.813 23.5147 17.0601C23.3512 17.1799 23.1573 17.2388 22.9596 17.2388Z" fill="#26C296"/>
<path d="M7.71257 17.2388C7.50347 17.2388 7.29626 17.1704 7.12328 17.0354L0.509863 11.8078C0.281748 11.6253 0.148682 11.3516 0.148682 11.0607V1.55594C0.148682 1.03318 0.574495 0.605469 1.09916 0.605469H10.6039C11.1286 0.605469 11.5544 1.03318 11.5544 1.55594V11.0607C11.5544 11.5835 11.1286 12.0112 10.6039 12.0112H7.19931L8.60982 15.969C8.75239 16.3682 8.61172 16.813 8.26765 17.0601C8.10417 17.1799 7.91027 17.2388 7.71257 17.2388Z" fill="#26C296"/>
</svg>
