<svg width="67" height="63" viewBox="0 0 67 63" fill="none" xmlns="http://www.w3.org/2000/svg">
<path d="M2.07193 62.3118C2.79918 62.3118 3.38874 61.7223 3.38874 60.995C3.38874 60.2678 2.79918 59.6782 2.07193 59.6782C1.34468 59.6782 0.755127 60.2678 0.755127 60.995C0.755127 61.7223 1.34468 62.3118 2.07193 62.3118Z" fill="#64CCE3"/>
<path d="M2.07193 50.53C2.79918 50.53 3.38874 49.9404 3.38874 49.2132C3.38874 48.4859 2.79918 47.8964 2.07193 47.8964C1.34468 47.8964 0.755127 48.4859 0.755127 49.2132C0.755127 49.9404 1.34468 50.53 2.07193 50.53Z" fill="#64CCE3"/>
<path d="M2.07193 38.748C2.79918 38.748 3.38874 38.1584 3.38874 37.4312C3.38874 36.7039 2.79918 36.1144 2.07193 36.1144C1.34468 36.1144 0.755127 36.7039 0.755127 37.4312C0.755127 38.1584 1.34468 38.748 2.07193 38.748Z" fill="#64CCE3"/>
<path d="M2.07193 26.8962C2.79918 26.8962 3.38874 26.3066 3.38874 25.5794C3.38874 24.8521 2.79918 24.2626 2.07193 24.2626C1.34468 24.2626 0.755127 24.8521 0.755127 25.5794C0.755127 26.3066 1.34468 26.8962 2.07193 26.8962Z" fill="#64CCE3"/>
<path d="M2.07193 15.1142C2.79918 15.1142 3.38874 14.5246 3.38874 13.7974C3.38874 13.0701 2.79918 12.4806 2.07193 12.4806C1.34468 12.4806 0.755127 13.0701 0.755127 13.7974C0.755127 14.5246 1.34468 15.1142 2.07193 15.1142Z" fill="#64CCE3"/>
<path d="M2.07169 3.26337C2.79894 3.26337 3.38849 2.67382 3.38849 1.94657C3.38849 1.21931 2.79894 0.629761 2.07169 0.629761C1.34444 0.629761 0.754883 1.21931 0.754883 1.94657C0.754883 2.67382 1.34444 3.26337 2.07169 3.26337Z" fill="#64CCE3"/>
<path d="M65.6237 62.3118C66.3509 62.3118 66.9405 61.7223 66.9405 60.995C66.9405 60.2678 66.3509 59.6782 65.6237 59.6782C64.8964 59.6782 64.3069 60.2678 64.3069 60.995C64.3069 61.7223 64.8964 62.3118 65.6237 62.3118Z" fill="#64CCE3"/>
<path d="M65.6237 50.5299C66.3509 50.5299 66.9405 49.9403 66.9405 49.213C66.9405 48.4858 66.3509 47.8962 65.6237 47.8962C64.8964 47.8962 64.3069 48.4858 64.3069 49.213C64.3069 49.9403 64.8964 50.5299 65.6237 50.5299Z" fill="#64CCE3"/>
<path d="M65.6237 38.7479C66.3509 38.7479 66.9405 38.1583 66.9405 37.4311C66.9405 36.7038 66.3509 36.1143 65.6237 36.1143C64.8964 36.1143 64.3069 36.7038 64.3069 37.4311C64.3069 38.1583 64.8964 38.7479 65.6237 38.7479Z" fill="#64CCE3"/>
<path d="M65.6237 26.8961C66.3509 26.8961 66.9405 26.3065 66.9405 25.5793C66.9405 24.852 66.3509 24.2625 65.6237 24.2625C64.8964 24.2625 64.3069 24.852 64.3069 25.5793C64.3069 26.3065 64.8964 26.8961 65.6237 26.8961Z" fill="#64CCE3"/>
<path d="M65.6237 15.1141C66.3509 15.1141 66.9405 14.5245 66.9405 13.7973C66.9405 13.07 66.3509 12.4805 65.6237 12.4805C64.8964 12.4805 64.3069 13.07 64.3069 13.7973C64.3069 14.5245 64.8964 15.1141 65.6237 15.1141Z" fill="#64CCE3"/>
<path d="M65.6237 3.26325C66.3509 3.26325 66.9405 2.6737 66.9405 1.94644C66.9405 1.21919 66.3509 0.629639 65.6237 0.629639C64.8964 0.629639 64.3069 1.21919 64.3069 1.94644C64.3069 2.6737 64.8964 3.26325 65.6237 3.26325Z" fill="#64CCE3"/>
<path d="M40.1894 62.3118C40.9166 62.3118 41.5062 61.7223 41.5062 60.995C41.5062 60.2678 40.9166 59.6782 40.1894 59.6782C39.4621 59.6782 38.8726 60.2678 38.8726 60.995C38.8726 61.7223 39.4621 62.3118 40.1894 62.3118Z" fill="#64CCE3"/>
<path d="M40.1894 50.5299C40.9166 50.5299 41.5062 49.9403 41.5062 49.213C41.5062 48.4858 40.9166 47.8962 40.1894 47.8962C39.4621 47.8962 38.8726 48.4858 38.8726 49.213C38.8726 49.9403 39.4621 50.5299 40.1894 50.5299Z" fill="#64CCE3"/>
<path d="M40.1894 38.7479C40.9166 38.7479 41.5062 38.1583 41.5062 37.4311C41.5062 36.7038 40.9166 36.1143 40.1894 36.1143C39.4621 36.1143 38.8726 36.7038 38.8726 37.4311C38.8726 38.1583 39.4621 38.7479 40.1894 38.7479Z" fill="#64CCE3"/>
<path d="M40.1894 26.8961C40.9166 26.8961 41.5062 26.3065 41.5062 25.5793C41.5062 24.852 40.9166 24.2625 40.1894 24.2625C39.4621 24.2625 38.8726 24.852 38.8726 25.5793C38.8726 26.3065 39.4621 26.8961 40.1894 26.8961Z" fill="#64CCE3"/>
<path d="M40.1894 15.1141C40.9166 15.1141 41.5062 14.5245 41.5062 13.7973C41.5062 13.07 40.9166 12.4805 40.1894 12.4805C39.4621 12.4805 38.8726 13.07 38.8726 13.7973C38.8726 14.5245 39.4621 15.1141 40.1894 15.1141Z" fill="#64CCE3"/>
<path d="M40.1894 3.26325C40.9166 3.26325 41.5062 2.6737 41.5062 1.94644C41.5062 1.21919 40.9166 0.629639 40.1894 0.629639C39.4621 0.629639 38.8726 1.21919 38.8726 1.94644C38.8726 2.6737 39.4621 3.26325 40.1894 3.26325Z" fill="#64CCE3"/>
<path d="M27.505 62.3118C28.2323 62.3118 28.8218 61.7223 28.8218 60.995C28.8218 60.2678 28.2323 59.6782 27.505 59.6782C26.7778 59.6782 26.1882 60.2678 26.1882 60.995C26.1882 61.7223 26.7778 62.3118 27.505 62.3118Z" fill="#64CCE3"/>
<path d="M27.505 50.5299C28.2323 50.5299 28.8218 49.9403 28.8218 49.213C28.8218 48.4858 28.2323 47.8962 27.505 47.8962C26.7778 47.8962 26.1882 48.4858 26.1882 49.213C26.1882 49.9403 26.7778 50.5299 27.505 50.5299Z" fill="#64CCE3"/>
<path d="M27.505 38.7479C28.2323 38.7479 28.8218 38.1583 28.8218 37.4311C28.8218 36.7038 28.2323 36.1143 27.505 36.1143C26.7778 36.1143 26.1882 36.7038 26.1882 37.4311C26.1882 38.1583 26.7778 38.7479 27.505 38.7479Z" fill="#64CCE3"/>
<path d="M27.505 26.8961C28.2323 26.8961 28.8218 26.3065 28.8218 25.5793C28.8218 24.852 28.2323 24.2625 27.505 24.2625C26.7778 24.2625 26.1882 24.852 26.1882 25.5793C26.1882 26.3065 26.7778 26.8961 27.505 26.8961Z" fill="#64CCE3"/>
<path d="M27.505 15.1141C28.2323 15.1141 28.8218 14.5245 28.8218 13.7973C28.8218 13.07 28.2323 12.4805 27.505 12.4805C26.7778 12.4805 26.1882 13.07 26.1882 13.7973C26.1882 14.5245 26.7778 15.1141 27.505 15.1141Z" fill="#64CCE3"/>
<path d="M27.505 3.26325C28.2323 3.26325 28.8218 2.6737 28.8218 1.94644C28.8218 1.21919 28.2323 0.629639 27.505 0.629639C26.7778 0.629639 26.1882 1.21919 26.1882 1.94644C26.1882 2.6737 26.7778 3.26325 27.505 3.26325Z" fill="#64CCE3"/>
<path d="M52.9418 62.3118C53.6691 62.3118 54.2586 61.7223 54.2586 60.995C54.2586 60.2678 53.6691 59.6782 52.9418 59.6782C52.2146 59.6782 51.625 60.2678 51.625 60.995C51.625 61.7223 52.2146 62.3118 52.9418 62.3118Z" fill="#64CCE3"/>
<path d="M52.9418 50.5299C53.6691 50.5299 54.2586 49.9403 54.2586 49.213C54.2586 48.4858 53.6691 47.8962 52.9418 47.8962C52.2146 47.8962 51.625 48.4858 51.625 49.213C51.625 49.9403 52.2146 50.5299 52.9418 50.5299Z" fill="#64CCE3"/>
<path d="M52.9418 38.7479C53.6691 38.7479 54.2586 38.1583 54.2586 37.4311C54.2586 36.7038 53.6691 36.1143 52.9418 36.1143C52.2146 36.1143 51.625 36.7038 51.625 37.4311C51.625 38.1583 52.2146 38.7479 52.9418 38.7479Z" fill="#64CCE3"/>
<path d="M52.9418 26.8961C53.6691 26.8961 54.2586 26.3065 54.2586 25.5793C54.2586 24.852 53.6691 24.2625 52.9418 24.2625C52.2146 24.2625 51.625 24.852 51.625 25.5793C51.625 26.3065 52.2146 26.8961 52.9418 26.8961Z" fill="#64CCE3"/>
<path d="M52.9418 15.1141C53.6691 15.1141 54.2586 14.5245 54.2586 13.7973C54.2586 13.07 53.6691 12.4805 52.9418 12.4805C52.2146 12.4805 51.625 13.07 51.625 13.7973C51.625 14.5245 52.2146 15.1141 52.9418 15.1141Z" fill="#64CCE3"/>
<path d="M52.9425 3.26301C53.6698 3.26301 54.2593 2.67345 54.2593 1.9462C54.2593 1.21895 53.6698 0.629395 52.9425 0.629395C52.2153 0.629395 51.6257 1.21895 51.6257 1.9462C51.6257 2.67345 52.2153 3.26301 52.9425 3.26301Z" fill="#64CCE3"/>
<path d="M14.8251 62.3118C15.5524 62.3118 16.1419 61.7223 16.1419 60.995C16.1419 60.2678 15.5524 59.6782 14.8251 59.6782C14.0979 59.6782 13.5083 60.2678 13.5083 60.995C13.5083 61.7223 14.0979 62.3118 14.8251 62.3118Z" fill="#64CCE3"/>
<path d="M14.8251 50.5299C15.5524 50.5299 16.1419 49.9403 16.1419 49.213C16.1419 48.4858 15.5524 47.8962 14.8251 47.8962C14.0979 47.8962 13.5083 48.4858 13.5083 49.213C13.5083 49.9403 14.0979 50.5299 14.8251 50.5299Z" fill="#64CCE3"/>
<path d="M14.8251 38.7479C15.5524 38.7479 16.1419 38.1583 16.1419 37.4311C16.1419 36.7038 15.5524 36.1143 14.8251 36.1143C14.0979 36.1143 13.5083 36.7038 13.5083 37.4311C13.5083 38.1583 14.0979 38.7479 14.8251 38.7479Z" fill="#64CCE3"/>
<path d="M14.8251 26.8961C15.5524 26.8961 16.1419 26.3065 16.1419 25.5793C16.1419 24.852 15.5524 24.2625 14.8251 24.2625C14.0979 24.2625 13.5083 24.852 13.5083 25.5793C13.5083 26.3065 14.0979 26.8961 14.8251 26.8961Z" fill="#64CCE3"/>
<path d="M14.8251 15.1141C15.5524 15.1141 16.1419 14.5245 16.1419 13.7973C16.1419 13.07 15.5524 12.4805 14.8251 12.4805C14.0979 12.4805 13.5083 13.07 13.5083 13.7973C13.5083 14.5245 14.0979 15.1141 14.8251 15.1141Z" fill="#64CCE3"/>
<path d="M14.8246 3.26301C15.5519 3.26301 16.1414 2.67345 16.1414 1.9462C16.1414 1.21895 15.5519 0.629395 14.8246 0.629395C14.0974 0.629395 13.5078 1.21895 13.5078 1.9462C13.5078 2.67345 14.0974 3.26301 14.8246 3.26301Z" fill="#64CCE3"/>
</svg>
