<svg width="47" height="45" viewBox="0 0 47 45" fill="none" xmlns="http://www.w3.org/2000/svg">
<path d="M45.9654 44.5421C46.5013 44.5421 46.9357 44.1077 46.9357 43.5718C46.9357 43.036 46.5013 42.6016 45.9654 42.6016C45.4295 42.6016 44.9951 43.036 44.9951 43.5718C44.9951 44.1077 45.4295 44.5421 45.9654 44.5421Z" fill="#64CCE3"/>
<path d="M45.9654 36.1547C46.5013 36.1547 46.9357 35.7203 46.9357 35.1844C46.9357 34.6485 46.5013 34.2141 45.9654 34.2141C45.4295 34.2141 44.9951 34.6485 44.9951 35.1844C44.9951 35.7203 45.4295 36.1547 45.9654 36.1547Z" fill="#64CCE3"/>
<path d="M45.9654 27.7692C46.5013 27.7692 46.9357 27.3348 46.9357 26.7989C46.9357 26.263 46.5013 25.8286 45.9654 25.8286C45.4295 25.8286 44.9951 26.263 44.9951 26.7989C44.9951 27.3348 45.4295 27.7692 45.9654 27.7692Z" fill="#64CCE3"/>
<path d="M45.9654 19.4525C46.5013 19.4525 46.9357 19.0181 46.9357 18.4822C46.9357 17.9464 46.5013 17.512 45.9654 17.512C45.4295 17.512 44.9951 17.9464 44.9951 18.4822C44.9951 19.0181 45.4295 19.4525 45.9654 19.4525Z" fill="#64CCE3"/>
<path d="M45.9654 11.0668C46.5013 11.0668 46.9357 10.6324 46.9357 10.0965C46.9357 9.56063 46.5013 9.12622 45.9654 9.12622C45.4295 9.12622 44.9951 9.56063 44.9951 10.0965C44.9951 10.6324 45.4295 11.0668 45.9654 11.0668Z" fill="#64CCE3"/>
<path d="M45.9654 2.75013C46.5013 2.75013 46.9357 2.31572 46.9357 1.77985C46.9357 1.24398 46.5013 0.80957 45.9654 0.80957C45.4295 0.80957 44.9951 1.24398 44.9951 1.77985C44.9951 2.31572 45.4295 2.75013 45.9654 2.75013Z" fill="#64CCE3"/>
<path d="M37.024 44.5421C37.5599 44.5421 37.9943 44.1077 37.9943 43.5718C37.9943 43.036 37.5599 42.6016 37.024 42.6016C36.4881 42.6016 36.0537 43.036 36.0537 43.5718C36.0537 44.1077 36.4881 44.5421 37.024 44.5421Z" fill="#64CCE3"/>
<path d="M37.024 36.1547C37.5599 36.1547 37.9943 35.7203 37.9943 35.1844C37.9943 34.6485 37.5599 34.2141 37.024 34.2141C36.4881 34.2141 36.0537 34.6485 36.0537 35.1844C36.0537 35.7203 36.4881 36.1547 37.024 36.1547Z" fill="#64CCE3"/>
<path d="M37.024 27.7689C37.5599 27.7689 37.9943 27.3345 37.9943 26.7986C37.9943 26.2628 37.5599 25.8284 37.024 25.8284C36.4881 25.8284 36.0537 26.2628 36.0537 26.7986C36.0537 27.3345 36.4881 27.7689 37.024 27.7689Z" fill="#64CCE3"/>
<path d="M37.024 19.4523C37.5599 19.4523 37.9943 19.0179 37.9943 18.482C37.9943 17.9461 37.5599 17.5117 37.024 17.5117C36.4881 17.5117 36.0537 17.9461 36.0537 18.482C36.0537 19.0179 36.4881 19.4523 37.024 19.4523Z" fill="#64CCE3"/>
<path d="M37.024 11.0668C37.5599 11.0668 37.9943 10.6324 37.9943 10.0965C37.9943 9.56063 37.5599 9.12622 37.024 9.12622C36.4881 9.12622 36.0537 9.56063 36.0537 10.0965C36.0537 10.6324 36.4881 11.0668 37.024 11.0668Z" fill="#64CCE3"/>
<path d="M37.0245 2.75013C37.5603 2.75013 37.9948 2.31572 37.9948 1.77985C37.9948 1.24398 37.5603 0.80957 37.0245 0.80957C36.4886 0.80957 36.0542 1.24398 36.0542 1.77985C36.0542 2.31572 36.4886 2.75013 37.0245 2.75013Z" fill="#64CCE3"/>
<path d="M28.0142 44.5421C28.5501 44.5421 28.9845 44.1077 28.9845 43.5718C28.9845 43.036 28.5501 42.6016 28.0142 42.6016C27.4784 42.6016 27.0439 43.036 27.0439 43.5718C27.0439 44.1077 27.4784 44.5421 28.0142 44.5421Z" fill="#64CCE3"/>
<path d="M28.0142 36.1547C28.5501 36.1547 28.9845 35.7203 28.9845 35.1844C28.9845 34.6485 28.5501 34.2141 28.0142 34.2141C27.4784 34.2141 27.0439 34.6485 27.0439 35.1844C27.0439 35.7203 27.4784 36.1547 28.0142 36.1547Z" fill="#64CCE3"/>
<path d="M28.0142 27.7689C28.5501 27.7689 28.9845 27.3345 28.9845 26.7986C28.9845 26.2628 28.5501 25.8284 28.0142 25.8284C27.4784 25.8284 27.0439 26.2628 27.0439 26.7986C27.0439 27.3345 27.4784 27.7689 28.0142 27.7689Z" fill="#64CCE3"/>
<path d="M28.0142 19.4523C28.5501 19.4523 28.9845 19.0179 28.9845 18.482C28.9845 17.9461 28.5501 17.5117 28.0142 17.5117C27.4784 17.5117 27.0439 17.9461 27.0439 18.482C27.0439 19.0179 27.4784 19.4523 28.0142 19.4523Z" fill="#64CCE3"/>
<path d="M28.0142 11.0668C28.5501 11.0668 28.9845 10.6324 28.9845 10.0965C28.9845 9.56063 28.5501 9.12622 28.0142 9.12622C27.4784 9.12622 27.0439 9.56063 27.0439 10.0965C27.0439 10.6324 27.4784 11.0668 28.0142 11.0668Z" fill="#64CCE3"/>
<path d="M28.0147 2.75013C28.5506 2.75013 28.985 2.31572 28.985 1.77985C28.985 1.24398 28.5506 0.80957 28.0147 0.80957C27.4788 0.80957 27.0444 1.24398 27.0444 1.77985C27.0444 2.31572 27.4788 2.75013 28.0147 2.75013Z" fill="#64CCE3"/>
<path d="M19.0045 44.5421C19.5403 44.5421 19.9747 44.1077 19.9747 43.5718C19.9747 43.036 19.5403 42.6016 19.0045 42.6016C18.4686 42.6016 18.0342 43.036 18.0342 43.5718C18.0342 44.1077 18.4686 44.5421 19.0045 44.5421Z" fill="#64CCE3"/>
<path d="M19.0045 36.1547C19.5403 36.1547 19.9747 35.7203 19.9747 35.1844C19.9747 34.6485 19.5403 34.2141 19.0045 34.2141C18.4686 34.2141 18.0342 34.6485 18.0342 35.1844C18.0342 35.7203 18.4686 36.1547 19.0045 36.1547Z" fill="#64CCE3"/>
<path d="M19.0045 27.7689C19.5403 27.7689 19.9747 27.3345 19.9747 26.7986C19.9747 26.2628 19.5403 25.8284 19.0045 25.8284C18.4686 25.8284 18.0342 26.2628 18.0342 26.7986C18.0342 27.3345 18.4686 27.7689 19.0045 27.7689Z" fill="#64CCE3"/>
<path d="M19.0045 19.4523C19.5403 19.4523 19.9747 19.0179 19.9747 18.482C19.9747 17.9461 19.5403 17.5117 19.0045 17.5117C18.4686 17.5117 18.0342 17.9461 18.0342 18.482C18.0342 19.0179 18.4686 19.4523 19.0045 19.4523Z" fill="#64CCE3"/>
<path d="M19.0045 11.0668C19.5403 11.0668 19.9747 10.6324 19.9747 10.0965C19.9747 9.56063 19.5403 9.12622 19.0045 9.12622C18.4686 9.12622 18.0342 9.56063 18.0342 10.0965C18.0342 10.6324 18.4686 11.0668 19.0045 11.0668Z" fill="#64CCE3"/>
<path d="M19.0049 2.75013C19.5408 2.75013 19.9752 2.31572 19.9752 1.77985C19.9752 1.24398 19.5408 0.80957 19.0049 0.80957C18.4691 0.80957 18.0347 1.24398 18.0347 1.77985C18.0347 2.31572 18.4691 2.75013 19.0049 2.75013Z" fill="#64CCE3"/>
<path d="M9.99469 44.5421C10.5306 44.5421 10.965 44.1077 10.965 43.5718C10.965 43.036 10.5306 42.6016 9.99469 42.6016C9.45882 42.6016 9.02441 43.036 9.02441 43.5718C9.02441 44.1077 9.45882 44.5421 9.99469 44.5421Z" fill="#64CCE3"/>
<path d="M9.99469 36.1547C10.5306 36.1547 10.965 35.7203 10.965 35.1844C10.965 34.6485 10.5306 34.2141 9.99469 34.2141C9.45882 34.2141 9.02441 34.6485 9.02441 35.1844C9.02441 35.7203 9.45882 36.1547 9.99469 36.1547Z" fill="#64CCE3"/>
<path d="M9.99469 27.7689C10.5306 27.7689 10.965 27.3345 10.965 26.7986C10.965 26.2628 10.5306 25.8284 9.99469 25.8284C9.45882 25.8284 9.02441 26.2628 9.02441 26.7986C9.02441 27.3345 9.45882 27.7689 9.99469 27.7689Z" fill="#64CCE3"/>
<path d="M9.99469 19.4523C10.5306 19.4523 10.965 19.0179 10.965 18.482C10.965 17.9461 10.5306 17.5117 9.99469 17.5117C9.45882 17.5117 9.02441 17.9461 9.02441 18.482C9.02441 19.0179 9.45882 19.4523 9.99469 19.4523Z" fill="#64CCE3"/>
<path d="M9.99469 11.0668C10.5306 11.0668 10.965 10.6324 10.965 10.0965C10.965 9.56063 10.5306 9.12622 9.99469 9.12622C9.45882 9.12622 9.02441 9.56063 9.02441 10.0965C9.02441 10.6324 9.45882 11.0668 9.99469 11.0668Z" fill="#64CCE3"/>
<path d="M9.99542 2.75013C10.5313 2.75013 10.9657 2.31572 10.9657 1.77985C10.9657 1.24398 10.5313 0.80957 9.99542 0.80957C9.45956 0.80957 9.02515 1.24398 9.02515 1.77985C9.02515 2.31572 9.45956 2.75013 9.99542 2.75013Z" fill="#64CCE3"/>
<path d="M1.05402 44.5421C1.58989 44.5421 2.0243 44.1077 2.0243 43.5718C2.0243 43.036 1.58989 42.6016 1.05402 42.6016C0.518148 42.6016 0.0837402 43.036 0.0837402 43.5718C0.0837402 44.1077 0.518148 44.5421 1.05402 44.5421Z" fill="#64CCE3"/>
<path d="M1.05402 36.1547C1.58989 36.1547 2.0243 35.7203 2.0243 35.1844C2.0243 34.6485 1.58989 34.2141 1.05402 34.2141C0.518148 34.2141 0.0837402 34.6485 0.0837402 35.1844C0.0837402 35.7203 0.518148 36.1547 1.05402 36.1547Z" fill="#64CCE3"/>
<path d="M1.05402 27.7689C1.58989 27.7689 2.0243 27.3345 2.0243 26.7986C2.0243 26.2628 1.58989 25.8284 1.05402 25.8284C0.518148 25.8284 0.0837402 26.2628 0.0837402 26.7986C0.0837402 27.3345 0.518148 27.7689 1.05402 27.7689Z" fill="#64CCE3"/>
<path d="M1.05402 19.4523C1.58989 19.4523 2.0243 19.0179 2.0243 18.482C2.0243 17.9461 1.58989 17.5117 1.05402 17.5117C0.518148 17.5117 0.0837402 17.9461 0.0837402 18.482C0.0837402 19.0179 0.518148 19.4523 1.05402 19.4523Z" fill="#64CCE3"/>
<path d="M1.05402 11.0668C1.58989 11.0668 2.0243 10.6324 2.0243 10.0965C2.0243 9.56063 1.58989 9.12622 1.05402 9.12622C0.518148 9.12622 0.0837402 9.56063 0.0837402 10.0965C0.0837402 10.6324 0.518148 11.0668 1.05402 11.0668Z" fill="#64CCE3"/>
<path d="M1.05402 2.75013C1.58989 2.75013 2.0243 2.31572 2.0243 1.77985C2.0243 1.24398 1.58989 0.80957 1.05402 0.80957C0.518148 0.80957 0.0837402 1.24398 0.0837402 1.77985C0.0837402 2.31572 0.518148 2.75013 1.05402 2.75013Z" fill="#64CCE3"/>
</svg>
