<svg width="53" height="53" viewBox="0 0 53 53" fill="none" xmlns="http://www.w3.org/2000/svg">
<rect x="0.888916" y="0.665283" width="51.9792" height="51.9792" rx="25.9896" fill="#E4F7F2"/>
<path d="M21.1815 27.0458C20.9446 26.6017 20.4709 26.3352 19.9675 26.3352H18.3982C18.7831 22.0417 22.3659 18.6662 26.7482 18.6662C28.1695 18.6662 29.5611 19.0215 30.8047 19.7322C31.4562 20.1171 32.2852 19.8802 32.6702 19.1992C33.0551 18.5478 32.8182 17.7187 32.1372 17.3338C30.5086 16.4158 28.6432 15.9125 26.7482 15.9125C20.8558 15.9125 16.059 20.5316 15.7037 26.3056H14.0455C13.5422 26.3056 13.0684 26.572 12.8315 27.0162C12.5946 27.4603 12.6242 27.9933 12.8907 28.4079L15.8517 32.9678C16.1182 33.3527 16.5328 33.5896 17.0065 33.5896C17.4803 33.5896 17.8948 33.3527 18.1613 32.9678L21.1223 28.4079C21.4184 28.0229 21.4184 27.4603 21.1815 27.0458Z" fill="#26C296"/>
<path d="M40.6098 25.5952L37.6488 21.0353C37.1454 20.2654 35.8722 20.2654 35.3688 21.0353L32.3782 25.5952C32.1117 26.0097 32.0821 26.5427 32.319 26.9869C32.5559 27.431 33.0296 27.6975 33.533 27.6975H35.1023C34.7174 31.991 31.1346 35.3665 26.7523 35.3665C25.3606 35.3665 23.9394 35.0112 22.6958 34.3005C22.0443 33.9452 21.2153 34.1821 20.8303 34.8335C20.475 35.4849 20.7119 36.314 21.3633 36.6989C23.0215 37.6168 24.8573 38.0906 26.7523 38.0906C32.6447 38.0906 37.4415 33.4714 37.8264 27.6975H39.455C39.9583 27.6975 40.4321 27.431 40.669 26.9869C40.8762 26.5427 40.8763 26.0097 40.6098 25.5952Z" fill="#26C296"/>
</svg>
