<svg width="61" height="61" viewBox="0 0 61 61" fill="none" xmlns="http://www.w3.org/2000/svg">
<g filter="url(#filter0_d)">
<rect x="4.57349" y="0.330566" width="51.9792" height="51.9792" rx="25.9896" fill="#E4F7F2"/>
<path d="M32.7545 33.7015L32.0884 31.1204C32.0052 30.8152 31.6999 30.6209 31.3946 30.7042C31.0893 30.7874 30.8951 31.0927 30.9783 31.398L31.6444 34.0068C30.9506 34.3953 30.4788 35.1169 30.4788 35.9495C30.4788 37.1984 31.4779 38.1975 32.7268 38.1975C33.9757 38.1975 34.9748 37.1984 34.9748 35.9495C35.0025 34.7284 34.0034 33.7292 32.7545 33.7015Z" fill="#26C296"/>
<path d="M25.2631 27.3446L21.7384 28.5657C21.3221 28.0661 20.7115 27.7331 19.99 27.7331C18.7411 27.7331 17.7419 28.7322 17.7419 29.9811C17.7419 31.23 18.7411 32.2291 19.99 32.2291C21.2388 32.2291 22.238 31.23 22.238 29.9811C22.238 29.8701 22.2102 29.7313 22.2102 29.6203L25.6238 28.4269C25.9291 28.3159 26.0679 28.0106 25.9846 27.7054C25.9014 27.4001 25.5683 27.2336 25.2631 27.3446Z" fill="#26C296"/>
<path d="M40.4706 24.9307C39.416 24.9307 38.5557 25.6522 38.3059 26.5959H35.6138C35.3085 26.5959 35.031 26.8456 35.031 27.1509C35.031 27.4562 35.2808 27.706 35.6138 27.706H38.2781C38.5279 28.6773 39.416 29.3712 40.4429 29.3712C41.6918 29.3712 42.6909 28.3721 42.6909 27.1232C42.6909 25.8743 41.7195 24.9307 40.4706 24.9307Z" fill="#26C296"/>
<path d="M30.4807 30.0927C32.5653 30.0927 34.2552 28.4153 34.2552 26.346C34.2552 24.2768 32.5653 22.5994 30.4807 22.5994C28.3962 22.5994 26.7063 24.2768 26.7063 26.346C26.7063 28.4153 28.3962 30.0927 30.4807 30.0927Z" fill="#26C296"/>
<path d="M27.067 22.1563L25.8459 21.2404C25.9569 20.9629 26.0124 20.6854 26.0124 20.3801C26.0124 19.1312 25.0133 18.1321 23.7644 18.1321C22.5155 18.1321 21.5164 19.1312 21.5164 20.3801C21.5164 21.629 22.5155 22.6281 23.7644 22.6281C24.2917 22.6281 24.7635 22.4338 25.152 22.1563L26.3732 23.0999C26.4842 23.1832 26.5952 23.2109 26.7062 23.2109C26.8727 23.2109 27.0392 23.1277 27.1503 22.9889C27.3723 22.7114 27.3168 22.3506 27.067 22.1563Z" fill="#26C296"/>
<path d="M32.8422 22.3776C32.9255 22.4331 33.0365 22.4609 33.1475 22.4609C33.3418 22.4609 33.536 22.3499 33.6471 22.1834L35.4233 19.2415C35.673 19.3248 35.9228 19.3803 36.1726 19.3803C37.4215 19.3803 38.4206 18.3812 38.4206 17.1323C38.4206 15.8834 37.4215 14.8843 36.1726 14.8843C34.9237 14.8843 33.9246 15.8834 33.9246 17.1323C33.9246 17.6873 34.1466 18.1869 34.4797 18.6032L32.6757 21.6005C32.4814 21.8503 32.5647 22.2111 32.8422 22.3776Z" fill="#26C296"/>
</g>
<defs>
<filter id="filter0_d" x="0.573486" y="0.330566" width="59.9792" height="59.9792" filterUnits="userSpaceOnUse" color-interpolation-filters="sRGB">
<feFlood flood-opacity="0" result="BackgroundImageFix"/>
<feColorMatrix in="SourceAlpha" type="matrix" values="0 0 0 0 0 0 0 0 0 0 0 0 0 0 0 0 0 0 127 0"/>
<feOffset dy="4"/>
<feGaussianBlur stdDeviation="2"/>
<feColorMatrix type="matrix" values="0 0 0 0 0 0 0 0 0 0 0 0 0 0 0 0 0 0 0.25 0"/>
<feBlend mode="normal" in2="BackgroundImageFix" result="effect1_dropShadow"/>
<feBlend mode="normal" in="SourceGraphic" in2="effect1_dropShadow" result="shape"/>
</filter>
</defs>
</svg>
